<svg width="279.08" height="38.24" viewBox="0 0 279.08 38.24" xmlns="http://www.w3.org/2000/svg"><g id="svgGroup" stroke-linecap="round" fill-rule="evenodd" font-size="9pt" stroke="#ffffff" stroke-width="0.1mm" fill="#ffffff" style="stroke:#ffffff;stroke-width:0.1mm;fill:#ffffff"><path d="M 114.08 15.52 L 114.08 14.8 Q 114.08 12 115.02 9.36 Q 115.96 6.72 117.76 4.6 Q 119.56 2.48 122.24 1.24 A 13.364 13.364 0 0 1 126.216 0.127 A 16.916 16.916 0 0 1 128.32 0 Q 131.88 0 134.64 1.34 Q 137.4 2.68 139.1 5.08 A 10.972 10.972 0 0 1 141.008 10.006 A 13.191 13.191 0 0 1 141.08 10.64 L 138 10.64 A 9.759 9.759 0 0 0 137.441 8.348 A 7.779 7.779 0 0 0 136.3 6.32 Q 134.92 4.56 132.84 3.68 Q 130.76 2.8 128.32 2.8 A 12.307 12.307 0 0 0 125.52 3.108 A 10.339 10.339 0 0 0 123.68 3.72 Q 121.6 4.64 120.16 6.32 A 11.795 11.795 0 0 0 118.159 9.67 A 13.685 13.685 0 0 0 117.94 10.26 A 14.331 14.331 0 0 0 117.222 13.726 A 17.277 17.277 0 0 0 117.16 15.2 Q 117.16 18.04 117.96 20.38 A 11.938 11.938 0 0 0 119.36 23.227 A 10.617 10.617 0 0 0 120.28 24.4 Q 121.8 26.08 123.98 27 A 11.513 11.513 0 0 0 126.867 27.78 A 15.039 15.039 0 0 0 128.96 27.92 A 14.978 14.978 0 0 0 132.171 27.59 A 11.75 11.75 0 0 0 135.02 26.58 A 11.362 11.362 0 0 0 137.471 24.914 A 9.577 9.577 0 0 0 139.08 23.04 L 137.88 26.8 L 137.88 18.16 L 140.76 18.16 L 140.76 25.44 A 12.627 12.627 0 0 1 136.433 28.992 A 14.881 14.881 0 0 1 135.88 29.26 A 14.827 14.827 0 0 1 131.882 30.43 A 19.515 19.515 0 0 1 128.96 30.64 Q 125.36 30.64 122.58 29.44 A 13.561 13.561 0 0 1 119.049 27.25 A 12.459 12.459 0 0 1 117.92 26.14 Q 116.04 24.04 115.06 21.3 Q 114.08 18.56 114.08 15.52 Z M 203.16 37.76 L 203.16 35.2 Q 204.6 35.4 206.18 35.54 A 36.31 36.31 0 0 0 208.085 35.661 A 30.087 30.087 0 0 0 209.16 35.68 Q 212.2 35.68 214 34.88 Q 215.8 34.08 216.58 32.34 A 7.823 7.823 0 0 0 217.07 30.813 Q 217.233 30.069 217.305 29.196 A 17.675 17.675 0 0 0 217.36 27.76 L 217.36 23.52 L 218.48 20.56 Q 218.4 23.6 217.2 25.78 A 8.649 8.649 0 0 1 215.111 28.33 A 8.2 8.2 0 0 1 213.96 29.12 A 8.917 8.917 0 0 1 210.314 30.236 A 10.972 10.972 0 0 1 209.32 30.28 A 10.237 10.237 0 0 1 206.761 29.97 A 8.834 8.834 0 0 1 205.18 29.4 Q 203.32 28.52 202 26.98 Q 200.68 25.44 199.96 23.48 Q 199.24 21.52 199.24 19.36 L 199.24 18.8 Q 199.24 16.68 199.96 14.74 Q 200.68 12.8 202 11.3 Q 203.32 9.8 205.22 8.94 A 9.726 9.726 0 0 1 208.376 8.127 A 11.777 11.777 0 0 1 209.44 8.08 Q 212.24 8.08 214.32 9.32 Q 216.4 10.56 217.58 12.76 A 10.377 10.377 0 0 1 218.625 15.807 A 13.71 13.71 0 0 1 218.84 17.92 L 217.88 17.4 L 217.88 8.8 L 220.24 8.8 L 220.24 27.64 Q 220.24 30.339 219.675 32.291 A 9.356 9.356 0 0 1 219.12 33.76 Q 218 36.08 215.54 37.16 Q 213.756 37.944 211.119 38.159 A 26.102 26.102 0 0 1 209 38.24 Q 207.52 38.24 206.02 38.1 A 56.383 56.383 0 0 1 203.849 37.856 A 49.102 49.102 0 0 1 203.16 37.76 Z M 151.76 29.96 L 148.76 29.96 L 148.76 0.76 L 151.76 0.76 L 151.76 17.28 L 150.88 17.96 Q 150.88 15.156 151.652 13.034 A 10.495 10.495 0 0 1 151.74 12.8 A 8.003 8.003 0 0 1 152.881 10.766 A 6.804 6.804 0 0 1 154.34 9.38 A 6.52 6.52 0 0 1 156.724 8.362 Q 157.648 8.16 158.72 8.16 L 158.88 8.16 A 9.295 9.295 0 0 1 161.25 8.445 A 6.301 6.301 0 0 1 164.7 10.68 A 8.515 8.515 0 0 1 166.138 13.527 Q 166.502 14.742 166.622 16.199 A 18.116 18.116 0 0 1 166.68 17.68 L 166.68 29.96 L 163.72 29.96 L 163.72 17.04 A 8.354 8.354 0 0 0 163.527 15.192 Q 163.224 13.856 162.446 12.887 A 5.182 5.182 0 0 0 162.16 12.56 Q 160.6 10.92 157.96 10.92 A 7.156 7.156 0 0 0 155.956 11.187 A 5.419 5.419 0 0 0 153.44 12.74 A 6.204 6.204 0 0 0 151.912 15.843 A 8.843 8.843 0 0 0 151.76 17.52 L 151.76 29.96 Z M 230.76 29.96 L 227.76 29.96 L 227.76 0.76 L 230.76 0.76 L 230.76 17.28 L 229.88 17.96 Q 229.88 15.156 230.652 13.034 A 10.495 10.495 0 0 1 230.74 12.8 A 8.003 8.003 0 0 1 231.881 10.766 A 6.804 6.804 0 0 1 233.34 9.38 A 6.52 6.52 0 0 1 235.724 8.362 Q 236.648 8.16 237.72 8.16 L 237.88 8.16 A 9.295 9.295 0 0 1 240.25 8.445 A 6.301 6.301 0 0 1 243.7 10.68 A 8.515 8.515 0 0 1 245.138 13.527 Q 245.502 14.742 245.622 16.199 A 18.116 18.116 0 0 1 245.68 17.68 L 245.68 29.96 L 242.72 29.96 L 242.72 17.04 A 8.354 8.354 0 0 0 242.527 15.192 Q 242.224 13.856 241.446 12.887 A 5.182 5.182 0 0 0 241.16 12.56 Q 239.6 10.92 236.96 10.92 A 7.156 7.156 0 0 0 234.956 11.187 A 5.419 5.419 0 0 0 232.44 12.74 A 6.204 6.204 0 0 0 230.912 15.843 A 8.843 8.843 0 0 0 230.76 17.52 L 230.76 29.96 Z M 49.88 29.96 L 34.48 29.96 L 34.48 26.48 L 46.76 11.16 L 46.64 11.84 L 46.08 10.96 L 46.52 11.2 L 34.36 11.2 L 34.36 8.8 L 49.28 8.8 L 49.28 12.28 L 36.96 27.56 L 37.08 26.96 L 37.68 27.84 L 37.24 27.56 L 49.88 27.56 L 49.88 29.96 Z M 0 15.64 L 0 14.92 Q 0 12.24 0.94 9.58 Q 1.88 6.92 3.76 4.76 A 13.606 13.606 0 0 1 7.754 1.639 A 15.878 15.878 0 0 1 8.44 1.3 A 13.742 13.742 0 0 1 12.179 0.199 A 18.209 18.209 0 0 1 14.92 0 Q 18.64 0 21.42 1.3 A 14.242 14.242 0 0 1 25.084 3.734 A 13.157 13.157 0 0 1 26.08 4.76 Q 27.96 6.92 28.9 9.58 Q 29.84 12.24 29.84 14.92 L 29.84 15.68 A 15.262 15.262 0 0 1 29.291 19.679 A 17.935 17.935 0 0 1 28.94 20.82 Q 28.04 23.44 26.18 25.68 A 13.667 13.667 0 0 1 21.952 29.062 A 15.847 15.847 0 0 1 21.52 29.28 A 13.129 13.129 0 0 1 18.054 30.38 A 17.981 17.981 0 0 1 14.92 30.64 A 17.88 17.88 0 0 1 11.682 30.361 A 13.075 13.075 0 0 1 8.32 29.28 Q 5.52 27.92 3.68 25.68 Q 1.84 23.44 0.92 20.8 A 16.54 16.54 0 0 1 0.114 17.427 A 14.254 14.254 0 0 1 0 15.64 Z M 93.08 29.96 L 90.08 29.96 L 90.08 8.8 L 92.48 8.8 L 92.48 17.64 L 92.24 17.64 Q 92.24 13 94.28 10.78 Q 95.932 8.983 99.104 8.641 A 14.711 14.711 0 0 1 100.68 8.56 L 101.36 8.56 L 101.36 11.28 L 100.12 11.28 Q 96.68 11.28 94.88 13.06 A 5.672 5.672 0 0 0 93.462 15.462 Q 93.08 16.695 93.08 18.28 L 93.08 29.96 Z M 14.92 27.84 A 13.156 13.156 0 0 0 17.687 27.561 A 10.564 10.564 0 0 0 19.92 26.82 Q 22.12 25.8 23.64 24.02 Q 25.16 22.24 25.96 20 Q 26.76 17.76 26.76 15.32 A 14.522 14.522 0 0 0 26.281 11.552 A 13.241 13.241 0 0 0 25.96 10.52 Q 25.16 8.28 23.62 6.54 Q 22.08 4.8 19.88 3.8 Q 17.68 2.8 14.92 2.8 A 12.797 12.797 0 0 0 12.025 3.117 A 10.735 10.735 0 0 0 10 3.8 Q 7.8 4.8 6.26 6.54 Q 4.72 8.28 3.9 10.52 A 13.678 13.678 0 0 0 3.09 14.764 A 15.667 15.667 0 0 0 3.08 15.32 Q 3.08 17.76 3.88 20 Q 4.68 22.24 6.2 24.02 Q 7.72 25.8 9.94 26.82 A 11.182 11.182 0 0 0 13.41 27.76 A 13.804 13.804 0 0 0 14.92 27.84 Z M 61.84 17.08 L 68.04 17.08 L 68.04 19.36 L 61.64 19.36 A 8.332 8.332 0 0 0 60.147 19.485 Q 58.691 19.751 57.78 20.58 A 4.037 4.037 0 0 0 56.448 23.458 A 5.491 5.491 0 0 0 56.44 23.76 Q 56.44 25.76 57.84 26.94 A 4.748 4.748 0 0 0 59.67 27.878 Q 60.38 28.073 61.223 28.111 A 9.24 9.24 0 0 0 61.64 28.12 Q 63.12 28.12 64.48 27.58 Q 65.84 27.04 66.76 25.74 A 4.813 4.813 0 0 0 67.404 24.415 Q 67.598 23.807 67.689 23.078 A 10.439 10.439 0 0 0 67.76 22.16 L 68.64 23.4 A 10.955 10.955 0 0 1 68.378 25.189 Q 68.09 26.402 67.52 27.34 Q 66.56 28.92 64.92 29.72 A 7.731 7.731 0 0 1 62.775 30.388 A 10.424 10.424 0 0 1 61.08 30.52 A 10.671 10.671 0 0 1 59.001 30.326 A 8.25 8.25 0 0 1 57.12 29.72 A 6.251 6.251 0 0 1 55.198 28.36 A 5.886 5.886 0 0 1 54.46 27.4 A 6.15 6.15 0 0 1 53.658 25.28 A 8.442 8.442 0 0 1 53.52 23.72 A 7.629 7.629 0 0 1 53.706 21.995 A 5.691 5.691 0 0 1 54.5 20.12 Q 55.48 18.64 57.34 17.86 A 9.382 9.382 0 0 1 59.255 17.3 Q 60.179 17.128 61.237 17.091 A 16.974 16.974 0 0 1 61.84 17.08 Z M 259.64 17.08 L 265.84 17.08 L 265.84 19.36 L 259.44 19.36 A 8.332 8.332 0 0 0 257.947 19.485 Q 256.491 19.751 255.58 20.58 A 4.037 4.037 0 0 0 254.248 23.458 A 5.491 5.491 0 0 0 254.24 23.76 Q 254.24 25.76 255.64 26.94 A 4.748 4.748 0 0 0 257.47 27.878 Q 258.18 28.073 259.023 28.111 A 9.24 9.24 0 0 0 259.44 28.12 Q 260.92 28.12 262.28 27.58 Q 263.64 27.04 264.56 25.74 A 4.813 4.813 0 0 0 265.204 24.415 Q 265.398 23.807 265.489 23.078 A 10.439 10.439 0 0 0 265.56 22.16 L 266.44 23.4 A 10.955 10.955 0 0 1 266.178 25.189 Q 265.89 26.402 265.32 27.34 Q 264.36 28.92 262.72 29.72 A 7.731 7.731 0 0 1 260.575 30.388 A 10.424 10.424 0 0 1 258.88 30.52 A 10.671 10.671 0 0 1 256.801 30.326 A 8.25 8.25 0 0 1 254.92 29.72 A 6.251 6.251 0 0 1 252.998 28.36 A 5.886 5.886 0 0 1 252.26 27.4 A 6.15 6.15 0 0 1 251.458 25.28 A 8.442 8.442 0 0 1 251.32 23.72 A 7.629 7.629 0 0 1 251.506 21.995 A 5.691 5.691 0 0 1 252.3 20.12 Q 253.28 18.64 255.14 17.86 A 9.382 9.382 0 0 1 257.055 17.3 Q 257.979 17.128 259.037 17.091 A 16.974 16.974 0 0 1 259.64 17.08 Z M 172.48 19.64 L 172.48 19.08 Q 172.48 17.04 173.24 15.06 Q 174 13.08 175.44 11.52 Q 176.88 9.96 178.94 9.02 A 10.326 10.326 0 0 1 181.855 8.196 A 13.271 13.271 0 0 1 183.64 8.08 A 13 13 0 0 1 186.128 8.308 A 10.019 10.019 0 0 1 188.38 9.02 Q 190.44 9.96 191.88 11.52 Q 193.32 13.08 194.06 15.06 Q 194.8 17.04 194.8 19.08 L 194.8 19.64 Q 194.8 21.68 194.08 23.64 Q 193.36 25.6 191.94 27.18 A 10.256 10.256 0 0 1 188.856 29.503 A 11.922 11.922 0 0 1 188.44 29.7 A 10.38 10.38 0 0 1 185.744 30.485 A 13.715 13.715 0 0 1 183.64 30.64 Q 180.92 30.64 178.86 29.7 Q 176.8 28.76 175.38 27.18 Q 173.96 25.6 173.22 23.64 Q 172.48 21.68 172.48 19.64 Z M 70.64 29.96 L 68.24 29.96 L 68.24 23.6 L 67.76 23.6 L 67.76 16.08 A 7.186 7.186 0 0 0 67.628 14.658 Q 67.356 13.309 66.52 12.46 A 3.806 3.806 0 0 0 65.059 11.556 Q 64.451 11.339 63.701 11.254 A 9.115 9.115 0 0 0 62.68 11.2 Q 61.48 11.2 60.26 11.24 Q 59.04 11.28 57.94 11.34 A 60.677 60.677 0 0 0 57.027 11.397 Q 56.611 11.426 56.241 11.458 A 34.047 34.047 0 0 0 56 11.48 L 56 8.84 Q 56.88 8.76 57.8 8.68 A 28.539 28.539 0 0 1 59.578 8.583 A 31.213 31.213 0 0 1 59.7 8.58 A 94.305 94.305 0 0 1 61.369 8.561 A 85.707 85.707 0 0 1 61.6 8.56 Q 63.837 8.56 65.474 8.942 A 9.121 9.121 0 0 1 66.82 9.36 A 6.146 6.146 0 0 1 68.466 10.327 A 5.195 5.195 0 0 1 69.72 11.86 A 6.789 6.789 0 0 1 70.316 13.423 Q 70.513 14.2 70.591 15.121 A 14.853 14.853 0 0 1 70.64 16.36 L 70.64 29.96 Z M 268.44 29.96 L 266.04 29.96 L 266.04 23.6 L 265.56 23.6 L 265.56 16.08 A 7.186 7.186 0 0 0 265.428 14.658 Q 265.156 13.309 264.32 12.46 A 3.806 3.806 0 0 0 262.859 11.556 Q 262.251 11.339 261.501 11.254 A 9.115 9.115 0 0 0 260.48 11.2 Q 259.28 11.2 258.06 11.24 Q 256.84 11.28 255.74 11.34 A 60.677 60.677 0 0 0 254.827 11.397 Q 254.411 11.426 254.041 11.458 A 34.047 34.047 0 0 0 253.8 11.48 L 253.8 8.84 Q 254.68 8.76 255.6 8.68 A 28.539 28.539 0 0 1 257.378 8.583 A 31.213 31.213 0 0 1 257.5 8.58 A 94.305 94.305 0 0 1 259.169 8.561 A 85.707 85.707 0 0 1 259.4 8.56 Q 261.637 8.56 263.274 8.942 A 9.121 9.121 0 0 1 264.62 9.36 A 6.146 6.146 0 0 1 266.266 10.327 A 5.195 5.195 0 0 1 267.52 11.86 A 6.789 6.789 0 0 1 268.116 13.423 Q 268.313 14.2 268.391 15.121 A 14.853 14.853 0 0 1 268.44 16.36 L 268.44 29.96 Z M 183.64 27.96 A 9.807 9.807 0 0 0 185.722 27.75 A 7.094 7.094 0 0 0 188.1 26.78 Q 189.92 25.6 190.88 23.66 A 9.346 9.346 0 0 0 191.817 20.087 A 11.146 11.146 0 0 0 191.84 19.36 A 10.147 10.147 0 0 0 191.495 16.672 A 8.811 8.811 0 0 0 190.86 15.02 Q 189.88 13.08 188.04 11.94 Q 186.2 10.8 183.64 10.8 A 9.361 9.361 0 0 0 181.427 11.051 A 7.33 7.33 0 0 0 179.28 11.94 Q 177.44 13.08 176.46 15.02 Q 175.48 16.96 175.48 19.36 A 10.058 10.058 0 0 0 175.874 22.212 A 8.961 8.961 0 0 0 176.44 23.66 Q 177.4 25.6 179.22 26.78 A 7.198 7.198 0 0 0 181.872 27.808 A 9.825 9.825 0 0 0 183.64 27.96 Z M 217.4 19.92 L 217.4 17.96 A 8.002 8.002 0 0 0 217.146 15.904 A 6.518 6.518 0 0 0 216.38 14.12 Q 215.36 12.48 213.68 11.56 Q 212 10.64 209.84 10.64 Q 207.52 10.64 205.8 11.76 Q 204.08 12.88 203.16 14.78 A 9.208 9.208 0 0 0 202.314 17.761 A 11.507 11.507 0 0 0 202.24 19.08 A 10.853 10.853 0 0 0 202.505 21.526 A 8.877 8.877 0 0 0 203.18 23.44 A 7.324 7.324 0 0 0 205.029 25.848 A 7.101 7.101 0 0 0 205.84 26.44 A 7.061 7.061 0 0 0 208.869 27.469 A 8.915 8.915 0 0 0 209.84 27.52 Q 212 27.52 213.7 26.58 Q 215.4 25.64 216.4 23.92 A 7.357 7.357 0 0 0 217.321 21.158 A 9.421 9.421 0 0 0 217.4 19.92 Z M 82.2 29.96 L 79.24 29.96 L 79.24 8.8 L 82.2 8.8 L 82.2 29.96 Z M 143.36 18.8 L 127.88 18.8 L 127.88 16.24 L 143.36 16.24 L 143.36 18.8 Z M 82.2 8.8 L 75.84 8.8 L 75.84 11.2 L 82.2 11.2 L 82.2 8.8 Z M 279.08 29.96 L 275.32 29.96 L 275.32 26 L 279.08 26 L 279.08 29.96 Z M 79.88 4.88 Q 78.8 4.88 78.26 4.3 Q 77.72 3.72 77.72 2.84 A 2.357 2.357 0 0 1 77.823 2.128 A 1.942 1.942 0 0 1 78.26 1.38 Q 78.8 0.8 79.88 0.8 Q 80.96 0.8 81.48 1.38 A 2.018 2.018 0 0 1 81.981 2.514 A 2.712 2.712 0 0 1 82 2.84 A 2.449 2.449 0 0 1 81.904 3.541 A 1.961 1.961 0 0 1 81.48 4.3 A 1.618 1.618 0 0 1 80.769 4.753 Q 80.506 4.84 80.184 4.868 A 3.59 3.59 0 0 1 79.88 4.88 Z" vector-effect="non-scaling-stroke"/></g></svg>