<svg xmlns="http://www.w3.org/2000/svg" version="1.1" xmlns:xlink="http://www.w3.org/1999/xlink" xmlns:svgjs="http://svgjs.dev/svgjs" width="1440" height="1440" preserveAspectRatio="none" viewBox="0 0 1440 1440"> <g mask="url(&quot;#SvgjsMask1276&quot;)" fill="none"> <rect width="1440" height="1440" x="0" y="0" fill="url(&quot;#SvgjsLinearGradient1277&quot;)"></rect> <path d="M1440 0L1176.71 0L1440 243.74z" fill="rgba(255, 255, 255, .1)"></path> <path d="M1176.71 0L1440 243.74L1440 335.3L527.33 0z" fill="rgba(255, 255, 255, .075)"></path> <path d="M527.3299999999999 0L1440 335.3L1440 467.22L296.7299999999999 0z" fill="rgba(255, 255, 255, .05)"></path> <path d="M296.73 0L1440 467.22L1440 794.52L199.24 0z" fill="rgba(255, 255, 255, .025)"></path> <path d="M0 1440L244.54 1440L0 1396z" fill="rgba(0, 0, 0, .1)"></path> <path d="M0 1396L244.54 1440L860.51 1440L0 1042.73z" fill="rgba(0, 0, 0, .075)"></path> <path d="M0 1042.73L860.51 1440L1132.75 1440L0 813.62z" fill="rgba(0, 0, 0, .05)"></path> <path d="M0 813.62L1132.75 1440L1299.4 1440L0 375.77z" fill="rgba(0, 0, 0, .025)"></path> </g> <defs> <mask id="SvgjsMask1276"> <rect width="1440" height="1440" fill="#ffffff"></rect> </mask> <linearGradient x1="0%" y1="0%" x2="100%" y2="100%" gradientUnits="userSpaceOnUse" id="SvgjsLinearGradient1277"> <stop stop-color="#0e2a47" offset="0"></stop> <stop stop-color="rgba(158, 0, 146, 1)" offset="1"></stop> </linearGradient> </defs> </svg>